<?xml version="1.0" encoding="utf-8"?>
<!-- Generator: Adobe Illustrator 25.4.1, SVG Export Plug-In . SVG Version: 6.00 Build 0)  -->
<svg version="1.1" id="Layer_1" xmlns="http://www.w3.org/2000/svg" xmlns:xlink="http://www.w3.org/1999/xlink" x="0px" y="0px"
	 viewBox="0 0 200 200" style="enable-background:new 0 0 200 200;" xml:space="preserve">
<style type="text/css">
	.st0{display:none;}
</style>
<path class="st0" d="M17.3,84.9L94,11c0.7-0.5,2.9-2,6-2s5.3,1.4,6,2c25.6,24.7,51.1,49.3,76.7,74c0.8,0.9,1.5,2,2.3,3.1
	c0.7,1.1,1.4,2.1,2,3.1c0,29.3,0,58.6,0,87.9c0,1-0.4,5.4-4,9s-8,4-9,4c-12.3,0-24.6,0-36.9,0c-1,0-5.4-0.4-9-4c-3.6-3.6-4-8-4-9.1
	c0-13.6,0-27.3,0-40.9c0-1-0.4-5.4-4-9.1c-3.6-3.6-8-4-9.1-4c-7.3,0-14.6,0-21.9,0c-1,0-5.4,0.4-9.1,4c-3.6,3.6-4,8-4,9.1
	c0,13.6,0,27.3,0,40.9c0,1-0.4,5.4-4,9.1c-3.6,3.6-8,4-9,4c-12.3,0-24.6,0-36.9,0c-1,0-5.4-0.4-9-4s-4-8-4-9c0-29,0-58,0-87
	c0.4-1.2,1.1-2.5,2-4C15.8,86.8,16.6,85.7,17.3,84.9z"/>
<path d="M172.3,44.3H27.7c-6.9,0-12.5,5.6-12.5,12.5v86.4c0,6.9,5.6,12.5,12.5,12.5h144.6c6.9,0,12.5-5.6,12.5-12.5V56.8
	C184.7,49.9,179.2,44.3,172.3,44.3z M174.7,58.7l-73.1,40.6c-0.4,0.2-0.9,0.4-1.4,0.4h-0.4c-0.5,0-1-0.1-1.4-0.4L25.3,58.7
	c-1.4-0.8-1.9-2.5-1.1-3.9c0.8-1.4,2.5-1.9,3.9-1.1L100,93.7l71.9-39.9c1.4-0.8,3.1-0.3,3.9,1.1C176.6,56.2,176.1,58,174.7,58.7z"/>
</svg>
