<?xml version="1.0" encoding="utf-8"?>
<!-- Generator: Adobe Illustrator 25.4.1, SVG Export Plug-In . SVG Version: 6.00 Build 0)  -->
<svg version="1.1" id="Layer_1" xmlns="http://www.w3.org/2000/svg" xmlns:xlink="http://www.w3.org/1999/xlink" x="0px" y="0px"
	 viewBox="0 0 200 200" style="enable-background:new 0 0 200 200;" xml:space="preserve">
<style type="text/css">
	.st0{display:none;}
</style>
<path class="st0" d="M17.3,84.9L94,11c0.7-0.5,2.9-2,6-2s5.3,1.4,6,2c25.6,24.7,51.1,49.3,76.7,74c0.8,0.9,1.5,2,2.3,3.1
	c0.7,1.1,1.4,2.1,2,3.1c0,29.3,0,58.6,0,87.9c0,1-0.4,5.4-4,9s-8,4-9,4c-12.3,0-24.6,0-36.9,0c-1,0-5.4-0.4-9-4c-3.6-3.6-4-8-4-9.1
	c0-13.6,0-27.3,0-40.9c0-1-0.4-5.4-4-9.1c-3.6-3.6-8-4-9.1-4c-7.3,0-14.6,0-21.9,0c-1,0-5.4,0.4-9.1,4c-3.6,3.6-4,8-4,9.1
	c0,13.6,0,27.3,0,40.9c0,1-0.4,5.4-4,9.1c-3.6,3.6-8,4-9,4c-12.3,0-24.6,0-36.9,0c-1,0-5.4-0.4-9-4s-4-8-4-9c0-29,0-58,0-87
	c0.4-1.2,1.1-2.5,2-4C15.8,86.8,16.6,85.7,17.3,84.9z"/>
<path d="M180.8,134.8c-1-1.6-8.1-5-8.1-5c-2.8-1.4-23.3-11.4-27.2-12.8c-3.3-1.2-7-2.5-10.4,2.5c-2.6,3.8-10,12.5-12.4,15.2
	c-1.7,1.9-3.3,2.6-7,0.7c-0.6-0.3-18.9-8.1-31.5-19.3C73.1,106.2,65.3,94,62.5,89.2c-1.7-2.9-0.6-4.3,1.5-6.4c1.3-1.3,7.1-8.3,7.6-9
	c0.9-1.4,2.6-4.8,2.6-4.8c1.7-3.3,0.6-6.2-0.3-8c-0.7-1.3-11.2-26.6-12.2-29c-3-7.2-6.2-7.5-9.3-7.4c-1.5,0.1-15.4,0.2-19.8,5
	l-0.8,0.8C27.4,35,18.4,44.6,18.4,63.1c0,4.3,0.7,8.7,2.1,13.7c2.6,8.9,7.6,18.7,14.3,27.7c0.1,0.2,10.3,14.3,15.4,20.2
	c16.1,18.5,34.3,32.2,52.7,39.4c23.5,9.2,33.5,11.3,39.1,11.3c2.5,0,7.7-1.3,8.9-1.4c7.2-0.6,24.2-9.5,27.8-19.5
	C182,145.1,182.1,136.9,180.8,134.8z"/>
</svg>
