<?xml version="1.0" encoding="utf-8"?>
<!-- Generator: Adobe Illustrator 25.4.1, SVG Export Plug-In . SVG Version: 6.00 Build 0)  -->
<svg version="1.1" id="Layer_1" xmlns="http://www.w3.org/2000/svg" xmlns:xlink="http://www.w3.org/1999/xlink" x="0px" y="0px"
	 viewBox="0 0 200 200" style="enable-background:new 0 0 200 200;" xml:space="preserve">
<style type="text/css">
	.st0{display:none;}
</style>
<path class="st0" d="M17.3,84.9L94,11c0.7-0.5,2.9-2,6-2s5.3,1.4,6,2c25.6,24.7,51.1,49.3,76.7,74c0.8,0.9,1.5,2,2.3,3.1
	c0.7,1.1,1.4,2.1,2,3.1c0,29.3,0,58.6,0,87.9c0,1-0.4,5.4-4,9s-8,4-9,4c-12.3,0-24.6,0-36.9,0c-1,0-5.4-0.4-9-4c-3.6-3.6-4-8-4-9.1
	c0-13.6,0-27.3,0-40.9c0-1-0.4-5.4-4-9.1c-3.6-3.6-8-4-9.1-4c-7.3,0-14.6,0-21.9,0c-1,0-5.4,0.4-9.1,4c-3.6,3.6-4,8-4,9.1
	c0,13.6,0,27.3,0,40.9c0,1-0.4,5.4-4,9.1c-3.6,3.6-8,4-9,4c-12.3,0-24.6,0-36.9,0c-1,0-5.4-0.4-9-4s-4-8-4-9c0-29,0-58,0-87
	c0.4-1.2,1.1-2.5,2-4C15.8,86.8,16.6,85.7,17.3,84.9z"/>
<path d="M177.2,82.8c-1.5,0.1-3,0.2-4.4,0.2c-16.2,0-31.4-8.2-40.3-21.8v74.2c0,30.3-24.5,54.8-54.8,54.8s-54.8-24.5-54.8-54.8
	s24.5-54.8,54.8-54.8l0,0c1.1,0,2.3,0.1,3.4,0.2v27c-1.1-0.1-2.2-0.3-3.4-0.3c-15.5,0-28,12.5-28,28c0,15.5,12.5,28,28,28
	c15.5,0,29.1-12.2,29.1-27.6l0.3-126h25.8c2.4,23.2,21.1,41.3,44.4,43L177.2,82.8"/>
</svg>
